<svg width="26" height="15" viewBox="0 0 26 15" fill="none" xmlns="http://www.w3.org/2000/svg">
<g clip-path="url(#clip0_13_112)">
<path d="M12.692 2C12.0073 2 11.3379 2.16714 10.7686 2.4803C10.1993 2.79345 9.75556 3.23855 9.49353 3.7593C9.2315 4.28006 9.16294 4.85308 9.29652 5.40591C9.4301 5.95874 9.75983 6.46655 10.244 6.86512C10.7282 7.26368 11.345 7.53511 12.0166 7.64508C12.6882 7.75504 13.3843 7.6986 14.0169 7.4829C14.6494 7.2672 15.1901 6.90192 15.5705 6.43325C15.951 5.96458 16.154 5.41358 16.154 4.84992C16.154 4.09407 15.7893 3.36918 15.14 2.83472C14.4908 2.30026 13.6102 2 12.692 2ZM5.769 4.058C5.26848 4.05671 4.77617 4.16263 4.34043 4.36537C3.90469 4.5681 3.54052 4.86067 3.2837 5.21432C3.02688 5.56797 2.88624 5.97054 2.87561 6.38248C2.86498 6.79441 2.98472 7.20154 3.22307 7.56385C3.46141 7.92616 3.81016 8.23119 4.23505 8.44898C4.65993 8.66676 5.14634 8.7898 5.64647 8.80601C6.1466 8.82222 6.64325 8.73104 7.08762 8.54143C7.53199 8.35182 7.90879 8.0703 8.181 7.72453C7.3756 6.90996 6.93184 5.89359 6.923 4.84333C6.91534 4.65266 6.93075 4.46184 6.969 4.27368C6.59347 4.12892 6.18366 4.05442 5.769 4.05553M19.615 4.05553C19.2003 4.05442 18.7905 4.12892 18.415 4.27368C18.4533 4.46184 18.4687 4.65266 18.461 4.84333C18.4522 5.89359 18.0084 6.90996 17.203 7.72453C17.4756 8.06882 17.8521 8.34889 18.2958 8.53731C18.7394 8.72572 19.2349 8.81601 19.7337 8.79932C20.2325 8.78263 20.7174 8.65954 21.141 8.4421C21.5646 8.22467 21.9123 7.92036 22.1501 7.559C22.3878 7.19764 22.5073 6.79164 22.4971 6.38078C22.4868 5.96992 22.347 5.56832 22.0914 5.21533C21.8358 4.86233 21.4732 4.57007 21.039 4.36719C20.6049 4.1643 20.1142 4.05776 19.615 4.058M12.692 9.59567C10.384 9.59567 5.769 10.5456 5.769 12.4456V14.348H19.615V12.4481C19.615 10.5481 15 9.59814 12.692 9.59814M4.235 10.5201C2.308 10.7959 0 11.5368 0 12.7617V14.348H3.462V12.4481C3.47813 11.756 3.74754 11.0841 4.235 10.5201ZM21.15 10.5201C21.6375 11.0841 21.9069 11.756 21.923 12.4481V14.348H25.385V12.7617C25.385 11.5368 23.077 10.7959 21.15 10.5201Z" fill="#B1A1A1"/>
</g>
<defs>
<clipPath id="clip0_13_112">
<rect width="25.385" height="15" fill="white"/>
</clipPath>
</defs>
</svg>
