<svg width="12" height="12" viewBox="0 0 12 12" fill="none" xmlns="http://www.w3.org/2000/svg">
<path d="M10.5 0H1.5C1.10218 0 0.720644 0.123299 0.43934 0.342773C0.158035 0.562247 0 0.859917 0 1.1703V10.5327C0 10.8431 0.158035 11.1408 0.43934 11.3602C0.720644 11.5797 1.10218 11.703 1.5 11.703H10.5C10.8978 11.703 11.2794 11.5797 11.5607 11.3602C11.842 11.1408 12 10.8431 12 10.5327V1.1703C12 0.859917 11.842 0.562247 11.5607 0.342773C11.2794 0.123299 10.8978 0 10.5 0ZM3.75 1.1703H5.25V4.09605L4.5 3.65758L3.75 4.09683V1.1703ZM10.5 10.5327H1.5V1.1703H2.25V6.43665L4.5 5.12045L6.75 6.43743V1.1703H10.5V10.5327Z" fill="#B1A1A1"/>
</svg>
