<svg width="16" height="15" viewBox="0 0 16 15" fill="none" xmlns="http://www.w3.org/2000/svg">
<g clip-path="url(#clip0_13_110)">
<path d="M6.31601 1.1488e-05H9.47401C9.89279 1.1488e-05 10.2944 0.16637 10.5905 0.46249C10.8867 0.75861 11.053 1.16023 11.053 1.57901V3.15801H14.211C14.6298 3.15801 15.0314 3.32437 15.3275 3.62049C15.6237 3.91661 15.79 4.31823 15.79 4.73701V13.421C15.79 13.6284 15.7492 13.8337 15.6698 14.0253C15.5905 14.2168 15.4742 14.3909 15.3275 14.5375C15.1809 14.6842 15.0068 14.8005 14.8153 14.8798C14.6237 14.9592 14.4184 15 14.211 15H1.57901C1.16023 15 0.75861 14.8337 0.46249 14.5375C0.16637 14.2414 1.1488e-05 13.8398 1.1488e-05 13.421V4.73701C-0.000781818 4.52943 0.0395187 4.32375 0.11859 4.13182C0.197661 3.93989 0.313939 3.7655 0.460721 3.61872C0.607503 3.47194 0.781886 3.35566 0.973817 3.27659C1.16575 3.19752 1.37143 3.15722 1.57901 3.15801H4.73701V1.57901C4.73622 1.37143 4.77652 1.16575 4.85559 0.973817C4.93466 0.781886 5.05094 0.607503 5.19772 0.460721C5.3445 0.313939 5.51889 0.197661 5.71082 0.11859C5.90275 0.0395187 6.10843 -0.000781818 6.31601 1.1488e-05ZM9.47401 3.15801V1.57901H6.31601V3.15801H9.47401Z" fill="#B1A1A1"/>
</g>
<defs>
<clipPath id="clip0_13_110">
<rect width="15.789" height="15" fill="white"/>
</clipPath>
</defs>
</svg>
