<svg width="70" height="67" viewBox="0 0 70 67" fill="none" xmlns="http://www.w3.org/2000/svg">
<path d="M25.6658 53.4274C25.6818 56.6309 25.7168 61.1742 25.7168 62.0882" stroke="#434A54" stroke-miterlimit="1" stroke-linecap="round" stroke-linejoin="round"/>
<path d="M44.3778 61.8789C44.3778 60.6739 44.4194 53.9991 44.4194 49.1043C44.4194 45.6914 43.2714 43.4648 41.9834 42.3296C49.9811 41.4242 58.3834 38.33 58.3834 24.2789C58.3834 20.2847 56.9898 17.0212 54.6871 14.4592C55.0601 13.5375 56.2898 9.81675 54.3351 4.77771C54.3351 4.77771 51.3231 3.79441 44.4678 8.5278C41.5974 7.7171 38.0524 7.31063 35.0001 7.29691C31.9478 7.31063 28.4051 7.7171 25.5404 8.5278C18.6764 3.79473 15.6604 4.77803 15.6604 4.77803C13.7104 9.81707 14.9398 13.5381 15.3124 14.4595C13.0148 17.0215 11.6118 20.285 11.6118 24.2792C11.6118 38.2969 19.9981 41.4337 27.9758 42.359C26.9488 43.2724 26.4878 49.9201 26.1654 52.2849C24.1158 53.2194 18.9171 54.8363 15.7138 49.2434C15.7138 49.2434 13.8148 45.7316 10.2078 45.4732" stroke="#434A54" stroke-miterlimit="1" stroke-linecap="round" stroke-linejoin="round"/>
</svg>
