<svg width="95" height="106" viewBox="0 0 95 106" fill="none" xmlns="http://www.w3.org/2000/svg">
<g clip-path="url(#clip0_1_29)">
<path d="M0 0H95V106H0V0Z" fill="#F7DF1E"/>
<path d="M24.9789 88.5814L32.249 83.6722C33.6515 86.4469 34.9274 88.7945 37.9877 88.7945C40.9213 88.7945 42.7708 87.5141 42.7708 82.5338V48.6643H51.6983V82.6746C51.6983 92.992 46.2782 97.6881 38.3704 97.6881C31.2287 97.6881 27.0831 93.561 24.9788 88.5805" fill="black"/>
<path d="M56.5476 87.5139L63.8168 82.8178C65.7303 86.3047 68.2174 88.866 72.6172 88.866C76.3164 88.866 78.6752 86.8024 78.6752 83.9562C78.6752 80.5408 76.2521 79.3311 72.1707 77.3395L69.9394 76.2714C63.4983 73.2123 59.2256 69.3701 59.2256 61.2584C59.2256 53.7873 64.3271 48.0947 72.2986 48.0947C77.9742 48.0947 82.0554 50.3007 84.9885 56.0642L78.0375 61.0447C76.507 57.9854 74.8494 56.776 72.2988 56.776C69.6841 56.776 68.026 58.6259 68.026 61.0447C68.026 64.0333 69.6841 65.2432 73.5099 67.0933L75.7417 68.1605C83.3304 71.7896 87.6031 75.4892 87.6031 83.8139C87.6031 92.7798 81.29 97.6889 72.8087 97.6889C64.5187 97.6889 59.1618 93.2776 56.5476 87.5139Z" fill="black"/>
</g>
<defs>
<clipPath id="clip0_1_29">
<rect width="95" height="106" fill="white"/>
</clipPath>
</defs>
</svg>
