<svg width="15" height="12" viewBox="0 0 15 12" fill="none" xmlns="http://www.w3.org/2000/svg">
<path d="M0 0H15V11.703H0V0ZM3.942 9.77825C4.12313 10.0934 4.42233 10.3584 4.80021 10.5383C5.17809 10.7182 5.61694 10.8047 6.059 10.7863C6.34474 10.8099 6.63364 10.7832 6.90436 10.708C7.17508 10.6329 7.4207 10.5112 7.62306 10.3521C7.82543 10.1929 7.97937 10.0003 8.07352 9.7885C8.16767 9.57669 8.19962 9.35108 8.167 9.12834V5.37012H6.75V9.10181C6.75 9.66122 6.458 9.80399 6 9.80399C5.517 9.80399 5.317 9.54419 5.092 9.23835L3.942 9.77825ZM8.925 9.66122C9.16944 10.0225 9.54258 10.3209 9.99946 10.5206C10.4563 10.7202 10.9774 10.8124 11.5 10.7863C12.833 10.7863 13.833 10.2464 13.833 9.25161C13.833 8.33488 13.158 7.92527 11.958 7.52191L11.608 7.40488C11 7.20359 10.741 7.06705 10.741 6.74171C10.7416 6.67502 10.7599 6.60915 10.795 6.54831C10.83 6.48747 10.8809 6.433 10.9444 6.38836C11.0079 6.34373 11.0826 6.30991 11.1638 6.28908C11.245 6.26824 11.3309 6.26084 11.416 6.26735C11.6109 6.26597 11.8019 6.31051 11.9639 6.39514C12.1259 6.47977 12.2514 6.60055 12.324 6.74171L13.416 6.17606C13.2267 5.89571 12.9366 5.66457 12.5813 5.511C12.226 5.35744 11.821 5.28814 11.416 5.3116C11.1558 5.29166 10.8931 5.31422 10.6447 5.37783C10.3963 5.44145 10.1676 5.54473 9.97313 5.68109C9.77869 5.81746 9.62277 5.98392 9.51532 6.16989C9.40786 6.35585 9.35122 6.55723 9.349 6.76121C9.349 7.65844 10.024 8.08131 11.041 8.41914L11.391 8.53617C12.041 8.75696 12.424 8.8935 12.424 9.27112C12.424 9.5832 12.049 9.81102 11.466 9.81102C11.1766 9.81368 10.8921 9.75219 10.6457 9.63369C10.3993 9.51518 10.201 9.34454 10.074 9.1416L8.925 9.66122Z" fill="#B1A1A1"/>
</svg>
