<svg width="32" height="32" viewBox="0 0 32 32" fill="none" xmlns="http://www.w3.org/2000/svg">
<path d="M16 31C15.7836 31 15.5731 30.9298 15.4 30.8L11.4 27.8C11.2758 27.7069 11.175 27.5861 11.1056 27.4472C11.0361 27.3084 11 27.1553 11 27V17.47C9.39456 16.3973 8.17665 14.8368 7.52614 13.0188C6.87564 11.2009 6.82704 9.2219 7.38751 7.37421C7.94799 5.52651 9.08782 3.90805 10.6387 2.75785C12.1895 1.60765 14.0692 0.986694 16 0.986694C17.9308 0.986694 19.8105 1.60765 21.3613 2.75785C22.9122 3.90805 24.052 5.52651 24.6125 7.37421C25.173 9.2219 25.1244 11.2009 24.4739 13.0188C23.8234 14.8368 22.6054 16.3973 21 17.47V19C21.0008 19.1316 20.9755 19.2621 20.9258 19.3839C20.876 19.5058 20.8027 19.6166 20.71 19.71L19.41 21L20.71 22.29C20.8037 22.383 20.8781 22.4936 20.9289 22.6154C20.9797 22.7373 21.0058 22.868 21.0058 23C21.0058 23.132 20.9797 23.2627 20.9289 23.3846C20.8781 23.5064 20.8037 23.617 20.71 23.71L19.41 25L20.71 26.29C20.8115 26.3916 20.8899 26.5138 20.94 26.6484C20.99 26.783 21.0105 26.9268 21 27.07C20.9897 27.2133 20.9486 27.3526 20.8796 27.4786C20.8105 27.6046 20.7152 27.7142 20.6 27.8L16.6 30.8C16.4269 30.9298 16.2164 31 16 31ZM13 26.5L16 28.75L18.48 26.89L17.29 25.71C17.1963 25.617 17.1219 25.5064 17.0711 25.3846C17.0203 25.2627 16.9942 25.132 16.9942 25C16.9942 24.868 17.0203 24.7373 17.0711 24.6154C17.1219 24.4936 17.1963 24.383 17.29 24.29L18.59 23L17.29 21.71C17.1963 21.617 17.1219 21.5064 17.0711 21.3846C17.0203 21.2627 16.9942 21.132 16.9942 21C16.9942 20.868 17.0203 20.7373 17.0711 20.6154C17.1219 20.4936 17.1963 20.383 17.29 20.29L19 18.59V16.92C19.0011 16.7455 19.0478 16.5743 19.1355 16.4234C19.2232 16.2726 19.3489 16.1473 19.5 16.06C20.8345 15.2895 21.8775 14.1003 22.4672 12.6766C23.0568 11.253 23.1603 9.67453 22.7615 8.1861C22.3627 6.69766 21.4838 5.38242 20.2613 4.44436C19.0388 3.50629 17.5409 2.99783 16 2.99783C14.4591 2.99783 12.9612 3.50629 11.7387 4.44436C10.5162 5.38242 9.63734 6.69766 9.23852 8.1861C8.8397 9.67453 8.94315 11.253 9.53284 12.6766C10.1225 14.1003 11.1655 15.2895 12.5 16.06C12.6511 16.1473 12.7768 16.2726 12.8645 16.4234C12.9522 16.5743 12.9989 16.7455 13 16.92V26.5Z" fill="#FFFFFF"/>
<path d="M16 9C16.5523 9 17 8.55228 17 8C17 7.44772 16.5523 7 16 7C15.4477 7 15 7.44772 15 8C15 8.55228 15.4477 9 16 9Z" fill="#ffffff"/>
<path d="M16 10C15.6044 10 15.2178 9.8827 14.8889 9.66294C14.56 9.44318 14.3036 9.13082 14.1522 8.76537C14.0009 8.39992 13.9613 7.99778 14.0384 7.60982C14.1156 7.22186 14.3061 6.86549 14.5858 6.58579C14.8655 6.30608 15.2219 6.1156 15.6098 6.03843C15.9978 5.96126 16.3999 6.00087 16.7654 6.15224C17.1308 6.30362 17.4432 6.55996 17.6629 6.88886C17.8827 7.21776 18 7.60444 18 8C18 8.53043 17.7893 9.03914 17.4142 9.41421C17.0391 9.78929 16.5304 10 16 10Z" fill="#FFFFFF"/>
</svg>
