<svg width="32" height="32" viewBox="0 0 32 32" fill="none" xmlns="http://www.w3.org/2000/svg">
<path d="M1.99997 29C1.85885 29.0009 1.71916 28.9718 1.59006 28.9149C1.46096 28.8579 1.34539 28.7742 1.25094 28.6694C1.15648 28.5645 1.08529 28.4409 1.04203 28.3065C0.998778 28.1722 0.984442 28.0303 0.999967 27.89L1.76997 20.89C1.79738 20.6663 1.89957 20.4584 2.05997 20.3L18.42 3.94001C18.7172 3.64218 19.0702 3.4059 19.4589 3.24469C19.8476 3.08347 20.2642 3.00049 20.685 3.00049C21.1057 3.00049 21.5224 3.08347 21.911 3.24469C22.2997 3.4059 22.6527 3.64218 22.95 3.94001L26.06 7.05001C26.3578 7.34724 26.5941 7.70029 26.7553 8.08894C26.9165 8.4776 26.9995 8.89424 26.9995 9.31501C26.9995 9.73577 26.9165 10.1524 26.7553 10.5411C26.5941 10.9297 26.3578 11.2828 26.06 11.58L9.70997 27.93C9.5516 28.0904 9.3437 28.1926 9.11997 28.22L2.11997 28.99L1.99997 29ZM3.72997 21.45L3.12997 26.87L8.54997 26.27L24.65 10.17C24.7618 10.0585 24.8506 9.92605 24.9112 9.78019C24.9717 9.63433 25.0029 9.47794 25.0029 9.32001C25.0029 9.16207 24.9717 9.00569 24.9112 8.85982C24.8506 8.71396 24.7618 8.58149 24.65 8.47001L21.53 5.35001C21.4185 5.23814 21.286 5.14937 21.1402 5.0888C20.9943 5.02824 20.8379 4.99706 20.68 4.99706C20.522 4.99706 20.3656 5.02824 20.2198 5.0888C20.0739 5.14937 19.9415 5.23814 19.83 5.35001L3.72997 21.45Z" fill="#101820"/>
<path d="M23 14.2099C22.8684 14.2107 22.7379 14.1855 22.6161 14.1357C22.4942 14.0859 22.3834 14.0126 22.29 13.9199L16.08 7.68992C15.9867 7.59668 15.9128 7.48599 15.8623 7.36417C15.8119 7.24235 15.7859 7.11178 15.7859 6.97992C15.7859 6.84806 15.8119 6.71749 15.8623 6.59567C15.9128 6.47385 15.9867 6.36316 16.08 6.26992C16.1732 6.17668 16.2839 6.10272 16.4057 6.05226C16.5276 6.0018 16.6581 5.97583 16.79 5.97583C16.9218 5.97583 17.0524 6.0018 17.1742 6.05226C17.2961 6.10272 17.4067 6.17668 17.5 6.26992L23.73 12.4999C23.8237 12.5929 23.8981 12.7035 23.9489 12.8253C23.9996 12.9472 24.0258 13.0779 24.0258 13.2099C24.0258 13.3419 23.9996 13.4726 23.9489 13.5945C23.8981 13.7164 23.8237 13.827 23.73 13.9199C23.6342 14.015 23.5201 14.0898 23.3946 14.1396C23.2692 14.1894 23.1349 14.2134 23 14.2099Z" fill="#101820"/>
<path d="M16.0851 12.5036L8.2998 20.2888L9.71402 21.703L17.4993 13.9178L16.0851 12.5036Z" fill="#101820"/>
<path d="M30 29H14C13.7348 29 13.4804 28.8946 13.2929 28.7071C13.1054 28.5196 13 28.2652 13 28C13 27.7348 13.1054 27.4804 13.2929 27.2929C13.4804 27.1054 13.7348 27 14 27H30C30.2652 27 30.5196 27.1054 30.7071 27.2929C30.8946 27.4804 31 27.7348 31 28C31 28.2652 30.8946 28.5196 30.7071 28.7071C30.5196 28.8946 30.2652 29 30 29Z" fill="#101820"/>
</svg>
