<svg width="15" height="12" viewBox="0 0 15 12" fill="none" xmlns="http://www.w3.org/2000/svg">
<path d="M7.5 2.55365e-06C6.01664 2.55365e-06 4.5666 0.343187 3.33323 0.986158C2.09986 1.62913 1.13856 2.54301 0.570907 3.61223C0.00324965 4.68145 -0.145275 5.85799 0.144114 6.99307C0.433503 8.12815 1.14781 9.17079 2.1967 9.98914C3.2456 10.8075 4.58197 11.3648 6.03683 11.5906C7.49168 11.8163 8.99968 11.7005 10.3701 11.2576C11.7406 10.8147 12.9119 10.0647 13.736 9.10242C14.5601 8.14015 15 7.00882 15 5.8515C15.0009 5.08287 14.8076 4.32164 14.431 3.61138C14.0544 2.90112 13.502 2.25577 12.8054 1.71227C12.1087 1.16876 11.2816 0.737769 10.3712 0.443958C9.46086 0.150147 8.48518 -0.000715842 7.5 2.55365e-06ZM7.5 10.5327C6.31332 10.5327 5.15328 10.2582 4.16658 9.74378C3.17989 9.2294 2.41085 8.4983 1.95673 7.64292C1.5026 6.78754 1.38378 5.84631 1.61529 4.93825C1.8468 4.03018 2.41825 3.19607 3.25736 2.54139C4.09648 1.88672 5.16558 1.44088 6.32946 1.26025C7.49335 1.07963 8.69975 1.17233 9.7961 1.52664C10.8925 1.88095 11.8295 2.48095 12.4888 3.25077C13.1481 4.02059 13.5 4.92565 13.5 5.8515C13.5 7.09303 12.8679 8.28372 11.7426 9.16161C10.6174 10.0395 9.0913 10.5327 7.5 10.5327ZM8.25 4.64609L9.05 5.27025L9.85 4.64609L10.65 5.27025L11.45 4.64609L9.86 3.40558L8.27 4.64609M5.18 4.64609L5.98 5.27025L6.78 4.64609L5.16 3.40558L3.57 4.64609L4.37 5.27025L5.165 4.64609M7.505 9.06983C8.33289 9.06786 9.14082 8.87144 9.8236 8.50615C10.5064 8.14085 11.0323 7.62362 11.333 7.0218H3.668C3.96891 7.62411 4.4955 8.14169 5.17906 8.50702C5.86262 8.87236 6.67144 9.06849 7.5 9.06983H7.505Z" fill="#B1A1A1"/>
</svg>
