<svg width="15" height="12" viewBox="0 0 15 12" fill="none" xmlns="http://www.w3.org/2000/svg">
<path d="M3.675 3.5109C3.675 3.35571 3.75402 3.20687 3.89467 3.09714C4.03532 2.9874 4.22609 2.92575 4.425 2.92575C4.62391 2.92575 4.81468 2.9874 4.95533 3.09714C5.09598 3.20687 5.175 3.35571 5.175 3.5109V6.12613L6.082 6.20415L9.782 7.48524C9.97373 7.55572 10.1357 7.66749 10.2487 7.80738C10.3617 7.94726 10.4212 8.10944 10.42 8.2748V10.8261C10.4101 11.0556 10.289 11.2738 10.0812 11.4365C9.87337 11.5992 9.59423 11.6944 9.3 11.703H4.425C4.28444 11.7038 4.14519 11.6818 4.01608 11.6384C3.88698 11.5951 3.77083 11.5312 3.675 11.451L0 8.99414L0.555 8.54397C0.625516 8.48415 0.711367 8.43656 0.806981 8.4043C0.902595 8.37205 1.00584 8.35583 1.11 8.35672H1.275L3.675 9.3624V3.5109ZM13.05 0C12.8275 0 12.61 0.0514776 12.425 0.147923C12.24 0.244369 12.0958 0.381451 12.0106 0.541834C11.9255 0.702217 11.9032 0.878699 11.9466 1.04896C11.99 1.21922 12.0972 1.37562 12.2545 1.49837C12.4118 1.62112 12.6123 1.70472 12.8305 1.73858C13.0488 1.77245 13.275 1.75507 13.4805 1.68864C13.6861 1.6222 13.8618 1.5097 13.9854 1.36536C14.109 1.22102 14.175 1.05132 14.175 0.877725C14.175 0.644938 14.0565 0.421685 13.8455 0.25708C13.6345 0.0924744 13.3484 0 13.05 0ZM13.05 2.92575C12.8275 2.92575 12.61 2.97723 12.425 3.07367C12.24 3.17012 12.0958 3.3072 12.0106 3.46758C11.9255 3.62797 11.9032 3.80445 11.9466 3.97471C11.99 4.14497 12.0972 4.30137 12.2545 4.42412C12.4118 4.54687 12.6123 4.63047 12.8305 4.66433C13.0488 4.6982 13.275 4.68082 13.4805 4.61439C13.6861 4.54795 13.8618 4.43545 13.9854 4.29111C14.109 4.14677 14.175 3.97707 14.175 3.80347C14.175 3.57069 14.0565 3.34743 13.8455 3.18283C13.6345 3.01822 13.3484 2.92575 13.05 2.92575ZM9.3 2.92575C9.0775 2.92575 8.85999 2.97723 8.67498 3.07367C8.48998 3.17012 8.34578 3.3072 8.26064 3.46758C8.17549 3.62797 8.15321 3.80445 8.19662 3.97471C8.24003 4.14497 8.34717 4.30137 8.50451 4.42412C8.66184 4.54687 8.86229 4.63047 9.08052 4.66433C9.29875 4.6982 9.52495 4.68082 9.73052 4.61439C9.93608 4.54795 10.1118 4.43545 10.2354 4.29111C10.359 4.14677 10.425 3.97707 10.425 3.80347C10.425 3.57069 10.3065 3.34743 10.0955 3.18283C9.88452 3.01822 9.59837 2.92575 9.3 2.92575ZM13.05 5.8515C12.8275 5.8515 12.61 5.90298 12.425 5.99942C12.24 6.09587 12.0958 6.23295 12.0106 6.39333C11.9255 6.55372 11.9032 6.7302 11.9466 6.90046C11.99 7.07072 12.0972 7.22712 12.2545 7.34987C12.4118 7.47262 12.6123 7.55622 12.8305 7.59008C13.0488 7.62395 13.275 7.60657 13.4805 7.54014C13.6861 7.4737 13.8618 7.3612 13.9854 7.21686C14.109 7.07252 14.175 6.90282 14.175 6.72922C14.175 6.49644 14.0565 6.27318 13.8455 6.10858C13.6345 5.94397 13.3484 5.8515 13.05 5.8515Z" fill="#B1A1A1"/>
</svg>
