<svg width="55" height="42" viewBox="0 0 55 42" fill="none" xmlns="http://www.w3.org/2000/svg">
<g clip-path="url(#clip0_15_220)">
<path fill-rule="evenodd" clip-rule="evenodd" d="M55 7.64323C52.9792 8.34608 50.8032 8.8212 48.5207 9.0335C50.8514 7.9415 52.6402 6.20966 53.4828 4.14706C51.3004 5.15834 48.889 5.894 46.3126 6.28841C44.2595 4.57198 41.3248 3.5 38.0772 3.5C31.8497 3.5 26.7975 7.4562 26.7975 12.3354C26.7975 13.0281 26.8941 13.7004 27.0879 14.3478C17.7104 13.9783 9.3977 10.4645 3.82852 5.11273C2.857 6.42228 2.30141 7.9415 2.30141 9.55948C2.30141 12.6235 4.29344 15.3282 7.32145 16.9134C5.47508 16.8704 3.73141 16.4685 2.20774 15.8112V15.9199C2.20774 20.2022 6.0977 23.7742 11.263 24.5833C10.3172 24.7907 9.3195 24.8944 8.28954 24.8944C7.56336 24.8944 6.85309 24.8412 6.16516 24.7376C7.60161 28.2465 11.7661 30.8023 16.7054 30.8705C12.8442 33.2419 7.97629 34.6548 2.69157 34.6548C1.78106 34.6548 0.880435 34.6145 -0.000854492 34.5334C4.9934 37.036 10.927 38.4998 17.2962 38.4998C38.054 38.4998 49.4012 25.0381 49.4012 13.3615C49.4012 12.9772 49.3913 12.593 49.372 12.2163C51.578 10.9701 53.4922 9.41544 55 7.64323Z" fill="#6BBFEC"/>
</g>
<defs>
<clipPath id="clip0_15_220">
<rect width="55" height="42" fill="white"/>
</clipPath>
</defs>
</svg>
