<svg width="50" height="29" viewBox="0 0 50 29" fill="none" xmlns="http://www.w3.org/2000/svg">
<path d="M0.861833 1.57787H9.1399C9.31297 1.57759 9.48201 1.62904 9.6245 1.72535C9.767 1.82166 9.87619 1.95827 9.93753 2.11698C10.8537 4.43197 14.6586 13.4911 18.1402 14.2311C20.727 14.2311 19.8109 2.1804 16.5233 2.1804C15.661 2.1804 18.0539 0.679355 18.2156 0.615931C21.2707 -0.20531 24.4949 -0.20531 27.55 0.615931C29.1991 1.29246 29.4794 3.18462 29.5225 4.79138C29.5656 6.39813 27.6901 13.248 30.1584 13.9879C33.3921 14.9604 37.5527 5.01336 38.5228 2.57152C38.5858 2.41479 38.6957 2.28044 38.8381 2.18611C38.9805 2.09178 39.1486 2.04188 39.3204 2.04298H48.5362C48.6786 2.04254 48.8189 2.07671 48.9446 2.14242C49.0703 2.20813 49.1774 2.30334 49.2564 2.41955C49.3354 2.53576 49.3838 2.66935 49.3973 2.80839C49.4108 2.94743 49.389 3.08758 49.3338 3.21634C47.4355 7.46339 45.1596 11.5383 42.5324 15.3938C42.3091 15.712 42.2043 16.0959 42.2357 16.481C42.2671 16.866 42.4328 17.2287 42.7049 17.508C45.4643 20.4044 53.0094 28.6073 48.6979 28.6073H39.3958C39.1554 28.6079 38.9176 28.5582 38.6983 28.4616C38.479 28.365 38.2832 28.2237 38.1239 28.047C36.6796 26.4826 32.4759 22.1274 30.5788 22.4763C29.0051 22.7617 28.8542 25.3832 28.9297 27.0957C28.9535 27.5375 28.7998 27.9709 28.5015 28.3028C28.2033 28.6348 27.7843 28.839 27.3344 28.8716C25.6853 28.9667 23.4325 29.009 23.2277 28.9984C16.6527 28.5862 12.7616 24.2839 9.0429 19.4847C5.14762 14.3968 2.109 8.72945 0.0426487 2.69837C0.000412702 2.57076 -0.0106527 2.43519 0.0103447 2.30262C0.0313421 2.17004 0.0838151 2.04415 0.163531 1.93511C0.243248 1.82608 0.347977 1.73694 0.469273 1.67488C0.590569 1.61283 0.725037 1.5796 0.861833 1.57787Z" fill="#6BBFEC"/>
</svg>
